<svg width="21" height="21" viewBox="0 0 21 21" fill="none" xmlns="http://www.w3.org/2000/svg">
<path d="M21 9.06818V11.9318C21 12.3295 20.8608 12.6676 20.5824 12.946C20.304 13.2244 19.9659 13.3636 19.5682 13.3636H13.3636V19.5682C13.3636 19.9659 13.2244 20.304 12.946 20.5824C12.6676 20.8608 12.3295 21 11.9318 21H9.06818C8.67045 21 8.33239 20.8608 8.05398 20.5824C7.77557 20.304 7.63636 19.9659 7.63636 19.5682V13.3636H1.43182C1.03409 13.3636 0.696024 13.2244 0.417614 12.946C0.139203 12.6676 0 12.3295 0 11.9318V9.06818C0 8.67045 0.139203 8.33239 0.417614 8.05398C0.696024 7.77557 1.03409 7.63636 1.43182 7.63636H7.63636V1.43182C7.63636 1.03409 7.77557 0.696024 8.05398 0.417614C8.33239 0.139203 8.67045 0 9.06818 0H11.9318C12.3295 0 12.6676 0.139203 12.946 0.417614C13.2244 0.696024 13.3636 1.03409 13.3636 1.43182V7.63636H19.5682C19.9659 7.63636 20.304 7.77557 20.5824 8.05398C20.8608 8.33239 21 8.67045 21 9.06818Z" fill="url(#paint0_linear_315_762)"/>
<defs>
<linearGradient id="paint0_linear_315_762" x1="1.21154" y1="-1.33261e-06" x2="24.6591" y2="8.15186" gradientUnits="userSpaceOnUse">
<stop stop-color="#00FFFA"/>
<stop offset="0.453125" stop-color="#706CFF"/>
<stop offset="0.973958" stop-color="#FF00CF"/>
</linearGradient>
</defs>
</svg>
